<svg width="128" height="128" viewBox="0 0 128 128" fill="none" xmlns="http://www.w3.org/2000/svg">
<rect width="128" height="128" fill="#1E1E1E"/>
<rect width="128" height="128" fill="white"/>
<path d="M59.1875 84H51.4375C51.25 84 51.1458 83.8958 51.125 83.6875L43.5625 39.7188C43.5208 39.5521 43.5833 39.4688 43.75 39.4688H50.9375C51.1042 39.4688 51.2083 39.5521 51.25 39.7188L55.3438 68.625L59.5625 39.7188C59.6042 39.5521 59.7292 39.4688 59.9375 39.4688H65.7188C65.8854 39.4688 65.9896 39.5521 66.0312 39.7188L70.1875 68.625L74.3438 39.7188C74.3854 39.5521 74.4896 39.4688 74.6562 39.4688H81.7812C81.9896 39.4688 82.0729 39.5521 82.0312 39.7188L74.4062 83.6875C74.3854 83.7708 74.3229 83.8438 74.2188 83.9062L74.0938 84H66.3438C66.2188 84 66.1146 83.8958 66.0312 83.6875L62.75 60.7188L59.5 83.6875C59.4792 83.8958 59.375 84 59.1875 84Z" fill="black"/>
</svg>
